<?xml version="1.0" encoding="UTF-8" standalone="no"?>
<!-- Uploaded to: SVG Repo, www.svgrepo.com, Generator: SVG Repo Mixer Tools -->

<svg
   fill="#000000"
   height="800px"
   width="800px"
   version="1.1"
   id="Capa_1"
   viewBox="0 0 503.903 503.903"
   xml:space="preserve"
   sodipodi:docname="club.svg"
   inkscape:version="1.3.2 (091e20e, 2023-11-25, custom)"
   xmlns:inkscape="http://www.inkscape.org/namespaces/inkscape"
   xmlns:sodipodi="http://sodipodi.sourceforge.net/DTD/sodipodi-0.dtd"
   xmlns="http://www.w3.org/2000/svg"
   xmlns:svg="http://www.w3.org/2000/svg"><defs
   id="defs4" /><sodipodi:namedview
   id="namedview4"
   pagecolor="#ffffff"
   bordercolor="#28353a"
   fill="#28353a"
   borderopacity="0.25"
   inkscape:showpageshadow="2"
   inkscape:pageopacity="0.0"
   inkscape:pagecheckerboard="0"
   inkscape:deskcolor="#d1d1d1"
   inkscape:zoom="0.508125"
   inkscape:cx="-366.05166"
   inkscape:cy="552.02952"
   inkscape:window-width="1920"
   inkscape:window-height="1009"
   inkscape:window-x="-8"
   inkscape:window-y="-8"
   inkscape:window-maximized="1"
   inkscape:current-layer="g4" />
<g
   id="g4"
   transform="matrix(2.0768404,0,0,2.0768404,-543.87034,-537.05706)"
   style="fill:#000000;fill-opacity:1">
	<path
   d="m 452.143,350.31 c -19.719,-1.128 -32.72302,-2.73568 -43.43002,13.50732 l 0.02,0.0257 c 19.494,-9.894 31.281,-30.386 30.03,-52.206 -4.02522,-70.19445 -109.849,-65.93554 -109.849,3.222 0,20.816 11.568,39.598 30.19,49.017 0.002,0.002 6e-5,-0.01 3e-4,-0.007 -10.707,-16.241 -23.7673,-14.68951 -43.4783,-13.55851 -27.868,1.598 -50.578,24.709 -51.703,52.613 -0.609,15.123 4.816,29.45 15.276,40.34 10.465,10.896 24.546,16.896 39.649,16.896 18.691,0 35.769,-9.347 45.873,-24.753 -5.029,18.964 -14.77,36.613 -28.344,51.009 -2.19,2.323 -2.79,5.726 -1.524,8.658 1.266,2.932 4.152,4.831 7.345,4.831 h 12.781 57.81 12.781 c 3.193,0 6.08,-1.899 7.345,-4.831 1.265,-2.932 0.666,-6.334 -1.524,-8.658 -13.574,-14.396 -23.314,-32.046 -28.344,-51.009 10.104,15.406 27.183,24.753 45.874,24.753 15.103,0 29.184,-6 39.649,-16.896 10.46,-10.891 15.885,-25.217 15.275,-40.34 -1.124,-27.904 -23.835,-51.015 -51.702,-52.613 z"
   id="path1"
   style="fill:#28353a;fill-opacity:1"
   sodipodi:nodetypes="ccccscccccsccssccssccscccc" />
	
	
	
</g>
</svg>
