<?xml version="1.0" encoding="UTF-8" standalone="no"?>
<!-- Uploaded to: SVG Repo, www.svgrepo.com, Generator: SVG Repo Mixer Tools -->

<svg
   fill="#000000"
   height="800px"
   width="800px"
   version="1.1"
   id="Capa_1"
   viewBox="0 0 503.903 503.903"
   xml:space="preserve"
   sodipodi:docname="diamond.svg"
   inkscape:version="1.3.2 (091e20e, 2023-11-25, custom)"
   xmlns:inkscape="http://www.inkscape.org/namespaces/inkscape"
   xmlns:sodipodi="http://sodipodi.sourceforge.net/DTD/sodipodi-0.dtd"
   xmlns="http://www.w3.org/2000/svg"
   xmlns:svg="http://www.w3.org/2000/svg"><defs
   id="defs4" /><sodipodi:namedview
   id="namedview4"
   pagecolor="#ffffff"
   bordercolor="#000000"
   borderopacity="0.25"
   inkscape:showpageshadow="2"
   inkscape:pageopacity="0.0"
   inkscape:pagecheckerboard="0"
   inkscape:deskcolor="#d1d1d1"
   inkscape:zoom="1.01625"
   inkscape:cx="400.492"
   inkscape:cy="400"
   inkscape:window-width="1920"
   inkscape:window-height="1009"
   inkscape:window-x="-8"
   inkscape:window-y="-8"
   inkscape:window-maximized="1"
   inkscape:current-layer="g4" />
<g
   id="g4"
   transform="matrix(2.0743319,0,0,2.0743319,-543.87861,-4.1855972)">
	
	
	<path
   d="m 267.197,130.366 c 36.384,26.461 83.775,73.852 110.236,110.235 1.505,2.07 3.91,3.295 6.47,3.295 2.56,0 4.964,-1.225 6.47,-3.295 26.461,-36.383 73.852,-83.774 110.236,-110.235 2.07,-1.505 3.294,-3.91 3.294,-6.47 0,-2.56 -1.225,-4.964 -3.294,-6.47 C 464.225,90.966 416.833,43.574 390.373,7.191 c -1.505,-2.07 -3.91,-3.295 -6.47,-3.295 -2.56,0 -4.964,1.225 -6.47,3.295 -26.461,36.383 -73.852,83.774 -110.236,110.235 -2.07,1.505 -3.294,3.91 -3.294,6.47 0,2.56 1.224,4.965 3.294,6.47 z"
   id="path3"
   sodipodi:nodetypes="ccsccsccsccsc"
   style="fill:#a50035;fill-opacity:1" />
	
</g>
</svg>
