<?xml version="1.0" encoding="UTF-8" standalone="no"?>
<!-- Uploaded to: SVG Repo, www.svgrepo.com, Generator: SVG Repo Mixer Tools -->

<svg
   fill="#000000"
   height="800px"
   width="800px"
   version="1.1"
   id="Capa_1"
   viewBox="0 0 503.903 503.903"
   xml:space="preserve"
   sodipodi:docname="heart.svg"
   inkscape:version="1.3.2 (091e20e, 2023-11-25, custom)"
   xmlns:inkscape="http://www.inkscape.org/namespaces/inkscape"
   xmlns:sodipodi="http://sodipodi.sourceforge.net/DTD/sodipodi-0.dtd"
   xmlns="http://www.w3.org/2000/svg"
   xmlns:svg="http://www.w3.org/2000/svg"><defs
   id="defs4" /><sodipodi:namedview
   id="namedview4"
   pagecolor="#ffffff"
   bordercolor="#000000"
   borderopacity="0.25"
   inkscape:showpageshadow="2"
   inkscape:pageopacity="0.0"
   inkscape:pagecheckerboard="0"
   inkscape:deskcolor="#d1d1d1"
   inkscape:zoom="1.01625"
   inkscape:cx="400.492"
   inkscape:cy="383.27183"
   inkscape:window-width="1920"
   inkscape:window-height="1009"
   inkscape:window-x="-8"
   inkscape:window-y="-8"
   inkscape:window-maximized="1"
   inkscape:current-layer="g4" />
<g
   id="g4"
   style="stroke-width:1.00025;stroke-dasharray:none"
   transform="matrix(2.0907087,0,0,2.0907087,1.2597575,-560.47914)">
	
	<path
   d="m 170.439,276.007 c -19.285,0 -37.521,8.365 -50.537,22.804 C 106.886,284.372 88.651,276.007 69.365,276.007 31.118,276.007 0,308.436 0,348.298 c 0,34.451 19.675,70.372 58.479,106.763 28.292,26.534 56.178,43.139 57.352,43.832 1.256,0.743 2.664,1.114 4.072,1.114 1.408,0 2.816,-0.371 4.072,-1.114 1.173,-0.693 29.059,-17.298 57.352,-43.832 38.804,-36.391 58.479,-72.312 58.479,-106.763 0,-39.862 -31.118,-72.291 -69.367,-72.291 z"
   id="path2"
   style="stroke-width:1.00025;stroke-dasharray:none;fill:#a50034;fill-opacity:1"
   sodipodi:nodetypes="scssccsccss" />
	
	
</g>
</svg>
