<?xml version="1.0" encoding="UTF-8" standalone="no"?>
<!-- Uploaded to: SVG Repo, www.svgrepo.com, Generator: SVG Repo Mixer Tools -->

<svg
   fill="#000000"
   height="800px"
   width="800px"
   version="1.1"
   id="Capa_1"
   viewBox="0 0 503.903 503.903"
   xml:space="preserve"
   sodipodi:docname="spade.svg"
   inkscape:version="1.3.2 (091e20e, 2023-11-25, custom)"
   xmlns:inkscape="http://www.inkscape.org/namespaces/inkscape"
   xmlns:sodipodi="http://sodipodi.sourceforge.net/DTD/sodipodi-0.dtd"
   xmlns="http://www.w3.org/2000/svg"
   xmlns:svg="http://www.w3.org/2000/svg"><defs
   id="defs4" /><sodipodi:namedview
   id="namedview4"
   pagecolor="#ffffff"
   bordercolor="#000000"
   borderopacity="0.25"
   inkscape:showpageshadow="2"
   inkscape:pageopacity="0.0"
   inkscape:pagecheckerboard="0"
   inkscape:deskcolor="#d1d1d1"
   inkscape:zoom="1.01625"
   inkscape:cx="415.25215"
   inkscape:cy="400"
   inkscape:window-width="1920"
   inkscape:window-height="1009"
   inkscape:window-x="-8"
   inkscape:window-y="-8"
   inkscape:window-maximized="1"
   inkscape:current-layer="g4" />
<g
   id="g4">
	
	
	
	<path
   d="m 262.57967,5.9571336 c -4.88752,-2.7478448 -10.85289,-2.7478448 -15.7404,0 C 237.65436,11.121637 21.897332,134.17049 21.897332,284.60546 c 0,74.13963 60.526859,134.45572 134.923428,134.45572 14.98167,0 29.54585,-2.39257 43.32924,-7.05527 -10.9412,22.89001 -25.39097,44.10802 -42.77124,62.62637 -4.3817,4.66873 -5.56996,11.49318 -3.02685,17.36823 2.54311,5.87505 8.33386,9.67667 14.73479,9.67667 h 172.49401 c 6.40093,0 12.19168,-3.80363 14.73479,-9.67667 2.54512,-5.87505 1.35485,-12.6995 -3.02685,-17.36823 -17.25381,-18.38386 -31.63132,-39.44733 -42.54844,-62.16873 13.36589,4.35761 27.43429,6.59563 41.85596,6.59563 74.39655,0 134.92139,-60.3161 134.92139,-134.45573 C 487.51957,134.17049 271.76457,11.121637 262.57967,5.9571336 Z"
   id="path4"
   style="stroke-width:2.00719;fill:#28353a;fill-opacity:1"
   sodipodi:nodetypes="ccsscsssscccscc" />
</g>
</svg>
